<svg xmlns="http://www.w3.org/2000/svg" xmlns:xlink="http://www.w3.org/1999/xlink" width="205" height="50" viewBox="0 0 205 50">
    <defs>
        <path id="iqijj9i9pa" d="M0.642 0.098L47.903 0.098 47.903 47.435 0.642 47.435z"/>
        <path id="lmby91iqpc" d="M0.262 0.441L6.678 0.441 6.678 6.734 0.262 6.734z"/>
    </defs>
    <g fill="none" fill-rule="evenodd">
        <g>
            <g>
                <g>
                    <g>
                        <path fill="#19486C" d="M102.726 27.039c-1.03-.207-3.38-.413-3.38-1.858 0-1.073 1.484-1.445 2.35-1.445 1.277 0 2.885.413 4.039 1.033l2.514-4.79c-2.185-.99-4.575-1.362-6.966-1.362-4.616 0-9.314 2.312-9.314 7.514 0 3.798 2.349 4.954 4.698 5.573 2.35.62 4.699.702 4.699 2.353 0 1.156-1.402 1.61-2.35 1.61-1.854 0-4.41-1.074-5.935-2.146l-2.72 5.242c2.555 1.568 5.523 2.436 8.532 2.436 4.904 0 9.974-2.312 9.974-7.885 0-3.922-2.638-5.573-6.141-6.275M110.304 30.135c0 6.4 5.234 11.064 11.5 11.064 1.813 0 3.627-.372 5.275-1.197v-6.358c-.99.908-2.432 1.445-3.75 1.445-3.092 0-5.276-2.147-5.276-5.201 0-2.932 2.267-5.16 5.151-5.16 1.443 0 2.762.66 3.875 1.485v-6.357c-1.484-.826-3.215-1.238-4.946-1.238-6.636 0-11.83 4.706-11.83 11.517M136.812 26.832c.454-2.187 2.267-3.344 4.451-3.344 2.02 0 3.875 1.321 4.246 3.344h-8.697zm4.08-8.215c-6.883 0-11.704 4.252-11.704 11.312 0 7.306 5.233 11.27 12.24 11.27 4.823 0 9.562-2.27 10.758-7.266h-7.213c-.825 1.404-1.978 1.94-3.586 1.94-3.091 0-4.699-1.65-4.699-4.706h15.786v-.784c0-7.225-4.245-11.766-11.581-11.766zM169.61 18.617c-2.926 0-5.029.867-6.76 3.427h-.082v-2.725h-7.5v21.178h7.5V29.516c0-2.642.866-4.913 3.916-4.913 3.71 0 3.38 3.55 3.38 5.574v10.32h7.5V27.41c0-5.201-2.266-8.793-7.954-8.793M189.874 19.319L189.874 12.962 182.373 12.962 182.373 19.319 180.48 19.319 179.403 25.511 182.373 25.511 182.373 40.497 189.874 40.497 189.874 25.511 194.658 25.511 195.734 19.319zM68.46 9.37L56.507 40.497 65.08 40.497 66.922 35.849 69.738 28.038 72.787 18.989 72.87 18.989 75.881 28.038 73.506 28.038 71.214 34.129 78.029 34.129 78.635 35.849 80.371 40.497 88.985 40.497 77.28 9.37z" transform="translate(-175 -10965) translate(0 10460) translate(141 483) translate(34 22)"/>
                        <path fill="#F05D24" d="M7.572 42.455c-1.257-1.26-2.302-2.65-3.147-4.124H0c1.138 2.506 2.73 4.856 4.785 6.915C6.76 47.222 9 48.773 11.388 49.902v-4.466c-1.36-.815-2.645-1.807-3.816-2.981" transform="translate(-175 -10965) translate(0 10460) translate(141 483) translate(34 22)"/>
                        <path fill="#19486C" d="M26.996 11.778L8.885 29.917 11.672 32.708 32.569 11.778zM35.355 11.778L13.064 34.104 15.85 36.894 38.141 14.568 38.141 11.778zM38.141 17.359L17.244 38.29 20.03 41.081 38.141 22.941z" transform="translate(-175 -10965) translate(0 10460) translate(141 483) translate(34 22)"/>
                        <g transform="translate(-175 -10965) translate(0 10460) translate(141 483) translate(34 22) translate(1.331 .569)">
                            <mask id="nntbyx2gjb" fill="#fff">
                                <use xlink:href="#iqijj9i9pa"/>
                            </mask>
                            <path fill="#19486C" d="M40.989 7.023c-9.218-9.234-24.217-9.233-33.435 0C2.614 11.97.322 18.582.678 25.073l4.1-4.106c.579-4.083 2.432-8.018 5.562-11.153 7.682-7.694 20.181-7.695 27.863 0 7.682 7.694 7.681 20.213 0 27.908-3.13 3.134-7.059 4.99-11.136 5.571l-4.1 4.106c6.482.357 13.083-1.938 18.022-6.886 9.218-9.233 9.218-24.257 0-33.49" mask="url(#nntbyx2gjb)"/>
                        </g>
                        <path fill="#F05D24" d="M18.06 42.563c-2.325-.96-4.502-2.383-6.389-4.273-1.886-1.89-3.306-4.07-4.266-6.399H3.2c1.124 3.36 3.018 6.518 5.685 9.19 2.668 2.672 5.82 4.569 9.175 5.694v-4.212z" transform="translate(-175 -10965) translate(0 10460) translate(141 483) translate(34 22)"/>
                        <path fill="#19486C" d="M31.175 32.708L20.03 43.871 20.03 49.453 31.175 38.29zM11.672 18.755L17.244 18.755 6.099 29.917.526 29.918z" transform="translate(-175 -10965) translate(0 10460) translate(141 483) translate(34 22)"/>
                        <g transform="translate(-175 -10965) translate(0 10460) translate(141 483) translate(34 22) translate(197.679 12.569)">
                            <mask id="r51z6do1ad" fill="#fff">
                                <use xlink:href="#lmby91iqpc"/>
                            </mask>
                            <path fill="#19486C" d="M3.004 3.435h.343c.399 0 .723-.133.723-.458 0-.286-.21-.476-.666-.476-.191 0-.324.019-.4.037v.897zm-.019 1.773h-.723V2.081c.285-.057.685-.095 1.199-.095.59 0 .857.095 1.084.228.172.134.305.382.305.687 0 .343-.266.61-.647.725v.038c.305.114.476.343.571.762.095.478.153.668.229.782h-.78c-.096-.114-.153-.4-.248-.762-.058-.344-.248-.496-.648-.496h-.342v1.258zm-1.923-1.64c0 1.392 1.028 2.498 2.437 2.498 1.37 0 2.38-1.106 2.38-2.478 0-1.392-1.01-2.518-2.4-2.518S1.063 2.196 1.063 3.568zm5.616 0c0 1.774-1.39 3.166-3.198 3.166-1.79 0-3.218-1.392-3.218-3.166C.262 1.833 1.69.441 3.48.441c1.809 0 3.198 1.392 3.198 3.127z" mask="url(#r51z6do1ad)"/>
                        </g>
                    </g>
                </g>
            </g>
        </g>
    </g>
</svg>
